<?xml version="1.0" encoding="UTF-8" standalone="no"?><svg xmlns="http://www.w3.org/2000/svg" xmlns:xlink="http://www.w3.org/1999/xlink" fill="#eb4e45" height="585.9" preserveAspectRatio="xMidYMid meet" version="1" viewBox="46.6 52.8 672.0 585.9" width="672" zoomAndPan="magnify"><g id="change1_1"><path d="m113.98 630.56c-6.6006-4.454-13.259-9.6813-14.797-11.616-10.19-12.82-19.264-65.943-12.92-75.637 1.6946-2.5897 3.7893-8.6325 4.6548-13.429s2.5095-9.9026 3.6532-11.348c3.712-4.6911-0.54889-18.591-7.2081-23.515l-6.2338-4.6089 5.3894-10.136c2.9642-5.5748 5.383-11.245 5.3752-12.6-0.01625-2.8299-11.387-10.075-21.245-13.536-4.3689-1.5341-8.2746-5.4558-11.19-11.237-2.4636-4.884-5.6007-10.106-6.9713-11.604-3.6234-3.961-5.8765-28.174-3.2616-35.051 1.4188-3.7317 1.4452-6.3358 0.07294-7.1839-1.1839-0.73169-2.1526-3.5175-2.1526-6.1907 0-7.7239 9.3868-28.283 13.511-29.592 2.4742-0.78528 3.4288-2.8937 2.7998-6.1838-0.52488-2.7458 0.12081-7.8202 1.4349-11.276 2.1131-5.5578 3.3597-6.2038 10.786-5.5893 6.7456 0.55822 8.5374 1.6851 9.112 5.7306 0.5638 3.9698 2.1654 5.0357 7.5666 5.0357 6.5982 0 6.8038-0.29357 5.5626-7.9423-2.0192-12.443 9.7833-63.795 18.804-81.815 3.6586-7.3083 3.7412-9.0538 0.87834-18.566-1.7379-5.7747-2.561-13.727-1.8291-17.671 2.0127-10.847 13.224-29.343 22.609-37.299 25.726-21.809 26.941-22.466 41.584-22.503 20.129-0.05009 20.223-0.18073 18.334-25.381-1.313-17.514-0.89231-23.608 2.2966-33.263 5.3523-16.206 8.7867-20.87 19.969-27.12 23.668-13.228 51.684-16.676 67.975-8.3647 10.963 5.5929 11.405 6.1873 25.901 34.844 13.024 25.748 13.196 28.432 2.0035 31.242-5.6043 1.4066-5.7592 1.895-4.4921 14.172 0.72178 6.9932 2.3891 13.074 3.7052 13.513s3.9082 3.7281 5.7604 7.3097c2.8615 5.5335 4.7042 6.5121 12.262 6.5121 6.2286 0 8.8949-0.96112 8.8949-3.2063 0-1.7635 1.9142-3.8138 4.2537-4.5564s4.8359-3.58 5.5475-6.3056 3.5814-7.7762 6.3772-11.224l5.0834-6.2681 35.809 3.6172c41.479 4.1898 45.881 5.4704 45.881 13.347v5.6432l78.893-0.09534 78.893-0.09532 8.6472-11.21c11.529-14.947 15.616-14.089 17.091 3.5872l1.119 13.409 38.04-0.66404c20.922-0.36522 39-1.6241 40.174-2.7976s3.9464-2.1336 6.1621-2.1336c3.1629 0 4.0289 1.8035 4.0301 8.3928l0.00152 8.3928-44.763-0.76192c-28.719-0.48882-44.763 0.03651-44.763 1.4656 0 1.2845-3.5748 1.748-8.444 1.0949-7.4364-0.99742-9.0756-0.30849-13.737 5.7735-4.132 5.3916-6.4553 6.6143-10.594 5.5754-2.916-0.73188-9.0719-0.50953-13.68 0.4941l-8.3781 1.8248 11.19 1.4271c8.534 1.0883 5.3463 1.5296-13.429 1.8591l-24.619 0.43198-17.868 10.626c-17.801 10.586-35.94 29.633-33.759 35.448 0.53459 1.4256-3.8721 10.993-9.7927 21.262-13.837 23.999-16.702 29.686-21.806 43.289-3.3866 9.0264-6.5657 12.805-16.439 19.54-6.732 4.592-17.779 9.74-24.55 11.44l-12.309 3.0907-1.4744 37.798c-2.2507 57.699-14.192 114.63-26.492 126.31-5.4496 5.1721-10.702 21.339-9.0554 27.87 0.31044 1.231 0.58432 4.7317 0.6086 7.7795s1.6808 8.0805 3.6811 11.184c5.6982 8.8405 26.702 29.156 30.143 29.156 5.0122 0 14.898 8.9184 14.898 13.44 0 11.817-41.908 9.1111-69.381-4.48-6.7702-3.3493-16.629-6.645-21.909-7.3237-14.155-1.8196-16.796-4.9134-15.656-18.334 0.52714-6.2031 2.5639-14.803 4.5261-19.112 3.6764-8.0719 5.5719-16.283 7.6971-33.342 0.92261-7.4057 0.38612-10.312-2.1675-11.741-4.3471-2.4327-3.3469-32.973 1.6753-51.156 1.87-6.7702 3.412-13.184 3.4266-14.253s-9.3356 6.9884-20.778 17.905-28.234 24.812-37.315 30.88c-15.577 10.409-47.21 25.809-53.135 25.869-3.6393 0.03673-11.001 24.553-14.042 46.763-3.112 22.729-9.2022 40.561-17.885 52.368-3.7238 5.0636-6.7706 10.343-6.7706 11.733s-2.2661 4.5981-5.0357 7.1306c-9.5077 8.6936-18.784 11.842-34.888 11.842-14.138 0-16.6-0.72414-27.528-8.0983zm-22.492-282.71c0.55952-1.6786-0.27976-2.5178-1.9583-1.9583-1.6156 0.53853-3.3781 2.301-3.9167 3.9167-0.55952 1.6786 0.27976 2.5178 1.9583 1.9583 1.6156-0.53853 3.3781-2.301 3.9167-3.9167zm238.22-17.7c7.078-4.1173 12.857-8.1452 12.842-8.9509-0.03697-2.044-24.652-18.937-25.849-17.74-2.0377 2.0377-3.8683 35.883-1.8954 35.043 1.118-0.47609 7.8238-4.2343 14.902-8.3515zm86.281-65.252c16.572-5.1951 21.683-8.8727 48.793-35.112 17.936-17.36 25.508-26.492 25.508-30.761 0-3.4516-14.385-0.25066-32.452 7.2213l-20.143 8.3304-0.65697 13.612-0.65699 13.612-15.469 3.3214-15.469 3.3214-0.6594-12.473-0.65941-12.473-12.869-0.67121c-12.273-0.64013-12.869-0.42286-12.869 4.6918 0 2.9497-1.5249 8.4198-3.3887 12.156-4.4189 8.8578-2.627 12.859 9.8637 22.026 12.109 8.8871 12.768 8.9548 31.128 3.1994zm-15.928-47.186c4.0648-4.0648 0.76938-11.002-5.2263-11.002-4.6558 0-5.2696 0.85876-4.3992 6.1548 0.55636 3.3851 1.0944 6.4065 1.1956 6.7143 0.50757 1.5432 6.3032 0.25937 8.4299-1.8673zm39.176-59.767c1.0795-1.0795 1.3184-3.6419 0.53087-5.6941-1.2336-3.2148-5.4064-3.7314-30.137-3.7314-26.696 0-28.804 0.31181-30.119 4.4562-0.77787 2.4509-0.94277 5.2205-0.36644 6.1547 1.4494 2.3494 57.666 1.2405 60.092-1.1854zm184.14-3.2708c-2.0976-9.7909-2.4505-9.9463-8.8776-3.9084-7.9751 7.4923-7.175 11.182 2.4248 11.182 7.8658 0 7.9829-0.13196 6.4528-7.2738z" fill="inherit"/></g></svg>