<?xml version="1.0" encoding="UTF-8"?><svg xmlns="http://www.w3.org/2000/svg" xmlns:xlink="http://www.w3.org/1999/xlink" height="164.1" preserveAspectRatio="xMidYMid meet" version="1.0" viewBox="0.0 0.0 386.5 164.1" width="386.5" zoomAndPan="magnify"><g id="change1_1"><path d="M386.5,71.9v0.3c0,0.1,0,0.1,0,0.2c0,40-32.4,72.4-72.4,72.4H72.4l0,0l0,0c-40,0-72.4-32.5-72.4-72.4 c0-0.2,0-0.3,0-0.5s0-0.3,0-0.5C0.6,31.9,32.7,0,72.4,0l0,0h241.7l0,0c0,0,0,0,0.1,0C353.9,0,386.2,32.1,386.5,71.9z M386.5,71.9 v0.3c0,0.1,0,0.1,0,0.2c0,40-32.4,72.4-72.4,72.4H72.4l0,0l0,0c-40,0-72.4-32.5-72.4-72.4c0-0.2,0-0.3,0-0.5s0-0.3,0-0.5 C0.6,31.9,32.7,0,72.4,0l0,0h241.7l0,0c0,0,0,0,0.1,0C353.9,0,386.2,32.1,386.5,71.9z" fill="#fc5658"/></g><g id="change2_1"><path d="M109.4,41.8h13.3c4.1,0,7.3,1.2,9.7,3.6c2.4,2.4,3.6,5.7,3.6,9.7v6.6c0,4.1-1.2,7.3-3.6,9.7 c-2.4,2.4-5.6,3.6-9.7,3.6h-4.8v22.7h-8.5C109.4,97.7,109.4,41.8,109.4,41.8z M122.2,67.1c1.7,0,2.9-0.5,3.8-1.4s1.4-2.2,1.4-3.8V55 c0-1.7-0.5-2.9-1.4-3.8c-0.9-0.9-2.2-1.4-3.8-1.4h-4.4v17.3H122.2z M155,41.8h8.5v48h15.1v8H155V41.8z M214.7,85.4h-9.1l-1.8,12.4 h-8.5l9.3-56H216l9.3,56h-8.6L214.7,85.4z M213.6,77.2l-3.4-23.4l-3.4,23.4H213.6z M268.5,41.8l-11.4,32.6v23.4h-8.5V74.4 l-11.4-32.6h9l6.6,21.4l6.7-21.4C259.5,41.8,268.5,41.8,268.5,41.8z" fill="#1f1347"/></g><g id="change2_2"><path d="M314.2,0C314.1,0,314.1,0,314.2,0H72.4C32.7,0,0.6,31.9,0,71.4c0,0.2,0,0.3,0,0.5s0,0.3,0,0.5 c0,1.9,0.1,3.7,0.2,5.5H0v12.8c0,0.2,0,0.3,0,0.5s0,0.3,0,0.5c0,39.9,32.4,72.4,72.4,72.4h241.7c40,0,72.4-32.4,72.4-72.4 c0-0.1,0-0.1,0-0.2v-0.3V77.9h-0.2c0.1-1.8,0.2-3.6,0.2-5.5c0-0.1,0-0.1,0-0.2v-0.3C386.2,32.1,353.9,0,314.2,0z M10,71.9v-0.4 C10.3,55,16.9,39.6,28.6,28c11.7-11.6,27.3-18,43.8-18h241.7h0.1c16.5,0,32.1,6.4,43.9,18.1c11.7,11.7,18.3,27.2,18.4,43.8v0.3v0.2 c0,34.4-28,62.4-62.4,62.4H72.4c-34.4,0-62.4-28-62.4-62.4V71.9z" fill="#1f1347"/></g></svg>